<svg xmlns="http://www.w3.org/2000/svg" xmlns:xlink="http://www.w3.org/1999/xlink" width="1080" zoomAndPan="magnify" viewBox="0 0 810 809.999993" height="1080" preserveAspectRatio="xMidYMid meet" version="1.0"><defs><clipPath id="fc8292cfb5"><path d="M 243 278.234375 L 567 278.234375 L 567 531.734375 L 243 531.734375 Z M 243 278.234375 " clip-rule="nonzero"/></clipPath></defs><g clip-path="url(#fc8292cfb5)"><path fill="#000000" d="M 341.617188 278.234375 C 287.261719 278.234375 243.027344 322.464844 243.027344 376.816406 L 243.027344 531.734375 L 383.871094 531.734375 L 383.871094 390.902344 L 306.40625 390.902344 L 306.40625 376.816406 C 306.40625 349.640625 322.199219 327.527344 341.617188 327.527344 L 348.660156 327.527344 L 348.660156 278.234375 Z M 524.71875 278.234375 C 470.363281 278.234375 426.125 322.464844 426.125 376.816406 L 426.125 531.734375 L 566.972656 531.734375 L 566.972656 390.902344 L 489.507812 390.902344 L 489.507812 376.816406 C 489.507812 349.640625 505.296875 327.527344 524.71875 327.527344 L 531.761719 327.527344 L 531.761719 278.234375 Z M 524.71875 278.234375 " fill-opacity="1" fill-rule="nonzero"/></g></svg>